<svg xmlns="http://www.w3.org/2000/svg" width="228" height="340" fill="none"><mask id="a" width="198" height="311" x="15" y="10" maskUnits="userSpaceOnUse" style="mask-type:alpha"><path fill="#fff" stroke="#1F2348" stroke-opacity=".25" stroke-width=".929" d="M212 18.43a7.429 7.429 0 0 0-7.428-7.43H23.429A7.429 7.429 0 0 0 16 18.429V312.57A7.429 7.429 0 0 0 23.428 320h181.143a7.429 7.429 0 0 0 7.429-7.429V18.429Z"/></mask><g mask="url(#a)"><path fill="#D9D9D9" fill-rule="evenodd" d="M254.795 53.863 194.798-50.005c-4.28-7.43-12.239-11.984-20.799-11.984H54.006c-8.56 0-16.48 4.594-20.76 11.984L-26.79 53.863A23.987 23.987 0 0 0-30 65.847v205.715h.409a24.03 24.03 0 0 0 2.8 7.576l59.998 103.867c4.28 7.431 12.24 11.985 20.799 11.985h119.993c8.56 0 16.479-4.594 20.759-11.985l59.997-103.867a23.717 23.717 0 0 0 2.832-7.576H258V65.85m-3.205-11.987A23.983 23.983 0 0 1 258 65.847l-3.205-11.984Z" clip-rule="evenodd"/><path fill="#fff" d="M254.795 53.862 194.798-50.006c-4.28-7.43-12.239-11.984-20.799-11.984H54.006c-8.56 0-16.48 4.594-20.76 11.985L-26.79 53.862A23.992 23.992 0 0 0-30 65.847V271.56h.409a24.028 24.028 0 0 0 2.8 7.576l59.998 103.868c4.28 7.43 12.24 11.984 20.799 11.984h119.993c8.56 0 16.48-4.594 20.759-11.984l59.997-103.868a23.708 23.708 0 0 0 2.832-7.576H258V65.847a23.984 23.984 0 0 0-3.205-11.985Z"/><g filter="url(#b)"><path fill="#fff" fill-rule="evenodd" d="M254.795 53.862 194.798-50.006l-80.796 102.26L173.999-61.99H54.006l59.996 114.245-80.755-102.26L-26.79 53.862A23.992 23.992 0 0 0-30 65.847l72.001-6.796 72.001-6.796 71.999 6.796L258 65.847a23.984 23.984 0 0 0-3.205-11.985Zm2.787 217.725-71.79 4.579-71.79 4.578-71.796-4.591-71.797-4.592a24.028 24.028 0 0 0 2.8 7.576l59.998 103.868 80.795-102.261-59.996 114.245h119.993l-59.997-114.245 80.756 102.261 59.997-103.868a23.7 23.7 0 0 0 2.827-7.55Z" clip-rule="evenodd"/><path fill="#fff" d="M-30 65.847v102.857h144.002L-30 65.846ZM-30 168.704v102.857l144.002-102.857H-30Z"/><path fill="#fff" d="M258 168.704V65.846L114.002 168.704H258ZM258 271.561V168.704H114.002L258 271.561ZM114.002 168.704v112.04l71.79-4.578-71.79-107.462Z"/><path fill="#fff" d="M114.002 280.744v-112.04L42.206 276.153l71.796 4.591ZM114.002 166.5V52.255l-72 6.796 72 109.653V166.5Z"/><path fill="#fff" d="M114.002 52.255v116.449l71.999-109.653-71.999-6.796Z"/><path stroke="#1F2348" stroke-opacity=".25" stroke-width="1.469" d="m194.798-50.005 59.997 103.867A23.984 23.984 0 0 1 258 65.847M194.798-50.005c-4.28-7.431-12.239-11.985-20.799-11.985m20.799 11.985-80.796 102.26M173.999-61.99h-59.997m59.997 0L114.002 52.255M54.006-61.99c-8.56 0-16.48 4.594-20.76 11.985m20.76-11.985h59.996m-59.996 0 59.996 114.245M33.247-50.005-26.79 53.862A23.992 23.992 0 0 0-30 65.847M33.247-50.005l80.755 102.26M-30 65.847v102.857m0-102.858 144.002 102.858M-30 65.846l72.001-6.795M-30 271.56h.409m-.409 0V168.704m0 102.857 144.002-102.857M-29.591 271.561a24.028 24.028 0 0 0 2.8 7.576l59.998 103.868m-62.798-111.444 71.797 4.592m-9 106.852c4.28 7.43 12.24 11.984 20.8 11.984m-20.8-11.984 80.796-102.261M54.006 394.989h59.996m-59.996 0 59.996-114.245m59.997 114.245c8.56 0 16.48-4.594 20.759-11.984m-20.759 11.984h-59.997m59.997 0-59.997-114.245m80.756 102.261 59.997-103.868a23.7 23.7 0 0 0 2.827-7.55m-62.824 111.418-80.756-102.261M258 271.561h-.386a.032.032 0 0 0-.032.026m.418-.026V168.704m0 102.857-.418.026m.418-.026L114.002 168.704M258 65.846v102.858m0-102.858L114.002 168.704M258 65.846l-71.999-6.795M114.002-61.99V52.255m0 342.734V280.744M258 168.704H114.002m-144.002 0h144.002m0-116.45V168.705m0-116.45 71.999 6.797m-71.999-6.796-72 6.796m72 221.693v-112.04m0 112.04-71.796-4.591m71.796 4.591 71.79-4.578m-71.79-107.462 71.999-109.653m-71.999 109.653-72-109.653m72 109.653L42.206 276.153m71.796-107.449 71.79 107.462m71.79-4.579-71.79 4.579"/></g><g opacity=".2"><mask id="l" fill="#fff"><path fill-rule="evenodd" d="M254.795 53.862 194.798-50.006l-80.796 102.26L173.999-61.99H54.006l59.996 114.245-80.755-102.26L-26.79 53.862A23.992 23.992 0 0 0-30 65.847l72.001-6.796 72.001-6.796 71.999 6.796L258 65.847a23.984 23.984 0 0 0-3.205-11.985Zm2.787 217.725-71.79 4.579-71.79 4.578-71.796-4.591-71.797-4.592a24.028 24.028 0 0 0 2.8 7.576l59.998 103.868 80.795-102.261-59.996 114.245h119.993l-59.997-114.245 80.756 102.261 59.997-103.868a23.7 23.7 0 0 0 2.827-7.55Z" clip-rule="evenodd"/><path d="M-30 65.847v102.857h144.002L-30 65.846ZM-30 168.704v102.857l144.002-102.857H-30Z"/><path d="M258 168.704V65.846L114.002 168.704H258ZM258 271.561V168.704H114.002L258 271.561ZM114.002 168.704v112.04l71.79-4.578-71.79-107.462Z"/><path d="M114.002 280.744v-112.04L42.206 276.153l71.796 4.591ZM114.002 166.5V52.255l-72 6.796 72 109.653V166.5Z"/><path d="M114.002 52.255v116.449l71.999-109.653-71.999-6.796Z"/></mask><path fill="url(#c)" fill-rule="evenodd" d="M254.795 53.862 194.798-50.006l-80.796 102.26L173.999-61.99H54.006l59.996 114.245-80.755-102.26L-26.79 53.862A23.992 23.992 0 0 0-30 65.847l72.001-6.796 72.001-6.796 71.999 6.796L258 65.847a23.984 23.984 0 0 0-3.205-11.985Zm2.787 217.725-71.79 4.579-71.79 4.578-71.796-4.591-71.797-4.592a24.028 24.028 0 0 0 2.8 7.576l59.998 103.868 80.795-102.261-59.996 114.245h119.993l-59.997-114.245 80.756 102.261 59.997-103.868a23.7 23.7 0 0 0 2.827-7.55Z" clip-rule="evenodd"/><path fill="url(#d)" d="M-30 65.847v102.857h144.002L-30 65.846Z"/><path fill="url(#e)" d="M-30 168.704v102.857l144.002-102.857H-30Z"/><path fill="url(#f)" d="M258 168.704V65.846L114.002 168.704H258Z"/><path fill="url(#g)" d="M258 271.561V168.704H114.002L258 271.561Z"/><path fill="url(#h)" d="M114.002 168.704v112.04l71.79-4.578-71.79-107.462Z"/><path fill="url(#i)" d="M114.002 280.744v-112.04L42.206 276.153l71.796 4.591Z"/><path fill="url(#j)" d="M114.002 166.5V52.255l-72 6.796 72 109.653V166.5Z"/><path fill="url(#k)" d="M114.002 52.255v116.449l71.999-109.653-71.999-6.796Z"/><path fill="#1F2348" d="M257.587 271.561v-5.143h-4.264l-.79 4.19 5.054.953Zm.413 0 .327 5.132-.327-10.275v5.143Zm-.418.026-5.053-.959-1.236 6.514 6.616-.422-.327-5.133ZM173.999-56.847c6.738 0 12.99 3.587 16.343 9.408l8.913-5.133c-5.207-9.04-14.874-14.561-25.256-14.561v10.286ZM37.697-47.428c3.365-5.811 9.594-9.42 16.309-9.42v-10.285c-10.404 0-20.015 5.58-25.21 14.55l8.901 5.155ZM-29.59 266.418H-30v10.286h.409v-10.286Zm83.597 123.428c-6.738 0-12.99-3.587-16.343-9.408l-8.913 5.134c5.207 9.039 14.874 14.56 25.256 14.56v-10.286Zm136.302-9.419c-3.365 5.811-9.594 9.419-16.309 9.419v10.286c10.404 0 20.015-5.58 25.21-14.55l-8.901-5.155ZM258 266.418h-.413v10.286H258v-10.286ZM108.86-61.99V52.255h10.285V-61.99H108.86Zm0 114.245V166.5h10.285V52.255H108.86Zm0 228.489v114.245h10.285V280.744H108.86ZM-30 173.846h144.002v-10.285H-30v10.285Zm149.145-5.142V166.5H108.86v2.204h10.285Zm-10.285 0v112.04h10.285v-112.04H108.86ZM258 163.561H114.002v10.285H258v-10.285Zm-.327 102.867-.418.027.654 10.265.418-.027-.654-10.265Zm-5.14 4.18-.004.02 10.106 1.918.006-.032-10.108-1.906ZM186.485 53.93l-71.999-6.795-.967 10.24 71.999 6.796.967-10.24Zm-144 10.24 72.001-6.795-.967-10.24-72.001 6.796.966 10.24Zm-.608 217.115 71.797 4.592.657-10.265-71.797-4.592-.657 10.265Zm72.453 4.592 71.79-4.579-.655-10.264-71.79 4.578.655 10.265Zm80.468-335.882 8.907-5.145-7.581-13.125-9.396 11.893 8.07 6.377Zm59.997 103.867 8.913-5.134-.006-.01-8.907 5.144ZM173.999-61.99l9.107 4.782 7.913-15.068h-17.02v10.286Zm-119.993 0v-10.286h-17.02L44.9-57.208l9.107-4.782Zm-20.76 11.985 8.073-6.375-9.393-11.894-7.584 13.121 8.905 5.148ZM-26.79 53.862l-8.905-5.148-.004.007-.004.007 8.913 5.134ZM-30 271.56h-10.286v19.987l16.264-11.617-5.978-8.37Zm.409 0 .656-10.265-13.2-.844 2.434 13.001 10.11-1.892Zm2.8 7.576-8.912 5.134.006.011 8.907-5.145Zm59.998 103.868-8.907 5.144 7.581 13.125 9.396-11.893-8.07-6.376Zm20.799 11.984-9.107-4.782-7.913 15.068h17.02v-10.286Zm119.993 0v10.286h17.02l-7.913-15.068-9.107 4.782Zm20.759-11.984-8.072 6.374 9.396 11.898 7.583-13.128-8.907-5.144Zm59.997-103.868-8.88-5.19-.013.023-.013.023 8.906 5.144Zm3.245-7.576-5.979 8.37 16.265 11.617v-19.987H258ZM114.002 52.255l-8.072 6.374L114 68.85l8.073-10.218-8.071-6.376Zm0 228.489 8.073-6.374-8.071-10.219-8.072 10.217 8.07 6.376Zm143.58-9.157 10.105 1.919 2.473-13.027-13.233.844.655 10.264ZM186.001 59.051l.967-10.24-6.166-.583-3.399 5.177 8.598 5.646Zm-144 0 8.598-5.646-3.399-5.177-6.165.582L42 59.05Zm.205 217.102-.657 10.264 5.916.379 3.293-4.929-8.552-5.714Zm143.586.013-8.553 5.714 3.293 4.928 5.915-.377-.655-10.265Zm.1-321.027 59.997 103.868 17.813-10.29L203.705-55.15l-17.813 10.29ZM-17.885 59.01 42.152-44.858l-17.81-10.295-60.037 103.868 17.81 10.294Zm-1.83 6.838c0-2.358.61-4.72 1.838-6.851l-17.826-10.268a34.277 34.277 0 0 0-4.583 17.119h20.572Zm1.838 208.157a13.75 13.75 0 0 1-1.604-4.335l-20.22 3.784a34.31 34.31 0 0 0 3.998 10.818l17.826-10.267Zm59.99 103.856-59.997-103.867-17.813 10.289L24.3 388.149l17.813-10.289ZM245.85 273.993 185.852 377.86l17.813 10.289 59.997-103.867-17.813-10.289Zm.033-214.998a13.684 13.684 0 0 1 1.832 6.846l20.572.012a34.262 34.262 0 0 0-4.578-17.125l-17.826 10.267ZM54.006-51.705h59.996v-20.57H54.006v20.57Zm59.996 0h59.997v-20.57h-59.997v20.57Zm59.997 436.409h-59.997v20.571h59.997v-20.571Zm-59.997 0H54.006v20.571h59.996v-20.571ZM247.714 65.846v102.858h20.572V65.846h-20.572Zm0 102.858v102.857h20.572V168.704h-20.572ZM-19.714 271.561V168.704h-20.572v102.857h20.572Zm0-102.857V65.846h-20.572v102.858h20.572Zm125.646 105.664-80.796 102.26 16.141 12.753 80.796-102.26-16.141-12.753Zm-42.82 125.404 59.997-114.245-18.213-9.565-59.997 114.245 18.213 9.565Zm119.994-9.565-59.997-114.245-18.213 9.565 59.997 114.245 18.213-9.565ZM105.93 287.119l80.756 102.26 16.144-12.749-80.755-102.26-16.145 12.749Zm58.963-353.892L104.896 47.473l18.213 9.565 59.997-114.245-18.213-9.564Zm21.835 10.39L105.932 45.879l16.141 12.753 80.796-102.26-16.141-12.753ZM25.174-43.63 105.93 58.63l16.145-12.749L41.319-56.38 25.174-43.63ZM44.9-57.208l59.997 114.245 18.213-9.565L63.112-66.773l-18.213 9.565ZM247.477 269.67a13.428 13.428 0 0 1-1.602 4.278l17.76 10.381a33.989 33.989 0 0 0 4.052-10.822l-20.21-3.837ZM119.981 160.334-24.022 57.477l-11.956 16.74 144.002 102.857 11.957-16.74ZM-24.022 279.931l144.003-102.857-11.957-16.74-144.002 102.857 11.956 16.74Zm144.003-102.858L263.979 74.216l-11.958-16.74-143.997 102.858 11.957 16.739Zm-11.957 0 143.997 102.858 11.958-16.74-143.998-102.857-11.957 16.739ZM258.967 55.606l-71.999-6.796-1.933 20.48 71.998 6.797 1.934-20.48Zm-81.564-2.2-71.998 109.652 17.195 11.291 71.999-109.653-17.196-11.29Zm-206.436 22.68 72-6.795-1.932-20.48-72.001 6.795 1.933 20.48Zm62.436-11.39 72.002 109.653 17.195-11.291-72-109.653-17.197 11.291Zm-63.65 217.13 71.796 4.591 1.313-20.529-71.797-4.592-1.313 20.53ZM105.45 162.989 33.654 270.438l17.104 11.429 71.797-107.449-17.105-11.429Zm80.997 123.442 71.79-4.579-1.31-20.529-71.789 4.578 1.309 20.53ZM105.45 174.417l71.789 107.463 17.106-11.428-71.79-107.462-17.105 11.427Z" mask="url(#l)"/></g><g filter="url(#m)"><path fill="#fff" d="M205 24.428A7.429 7.429 0 0 0 197.572 17H30.429A7.428 7.428 0 0 0 23 24.427V306.57a7.429 7.429 0 0 0 7.428 7.429h167.143A7.429 7.429 0 0 0 205 306.57V24.428Z"/><path fill="#1F2348" fill-opacity=".1" d="M205 24.428A7.429 7.429 0 0 0 197.572 17H30.429A7.428 7.428 0 0 0 23 24.427V306.57a7.429 7.429 0 0 0 7.428 7.429h167.143A7.429 7.429 0 0 0 205 306.57V24.428Z"/><path stroke="#1F2348" stroke-opacity=".25" stroke-width=".929" d="M205 24.428A7.429 7.429 0 0 0 197.572 17H30.429A7.428 7.428 0 0 0 23 24.427V306.57a7.429 7.429 0 0 0 7.428 7.429h167.143A7.429 7.429 0 0 0 205 306.57V24.428Z"/></g></g><defs><radialGradient id="c" cx="0" cy="0" r="1" gradientTransform="matrix(-288 0 0 -456.98 258 394.989)" gradientUnits="userSpaceOnUse"><stop stop-color="#260133"/><stop offset="1" stop-color="#1F2348"/></radialGradient><radialGradient id="d" cx="0" cy="0" r="1" gradientTransform="matrix(-288 0 0 -456.98 258 394.989)" gradientUnits="userSpaceOnUse"><stop stop-color="#260133"/><stop offset="1" stop-color="#1F2348"/></radialGradient><radialGradient id="e" cx="0" cy="0" r="1" gradientTransform="matrix(-288 0 0 -456.98 258 394.989)" gradientUnits="userSpaceOnUse"><stop stop-color="#260133"/><stop offset="1" stop-color="#1F2348"/></radialGradient><radialGradient id="f" cx="0" cy="0" r="1" gradientTransform="matrix(-288 0 0 -456.98 258 394.989)" gradientUnits="userSpaceOnUse"><stop stop-color="#260133"/><stop offset="1" stop-color="#1F2348"/></radialGradient><radialGradient id="g" cx="0" cy="0" r="1" gradientTransform="matrix(-288 0 0 -456.98 258 394.989)" gradientUnits="userSpaceOnUse"><stop stop-color="#260133"/><stop offset="1" stop-color="#1F2348"/></radialGradient><radialGradient id="h" cx="0" cy="0" r="1" gradientTransform="matrix(-288 0 0 -456.98 258 394.989)" gradientUnits="userSpaceOnUse"><stop stop-color="#260133"/><stop offset="1" stop-color="#1F2348"/></radialGradient><radialGradient id="i" cx="0" cy="0" r="1" gradientTransform="matrix(-288 0 0 -456.98 258 394.989)" gradientUnits="userSpaceOnUse"><stop stop-color="#260133"/><stop offset="1" stop-color="#1F2348"/></radialGradient><radialGradient id="j" cx="0" cy="0" r="1" gradientTransform="matrix(-288 0 0 -456.98 258 394.989)" gradientUnits="userSpaceOnUse"><stop stop-color="#260133"/><stop offset="1" stop-color="#1F2348"/></radialGradient><radialGradient id="k" cx="0" cy="0" r="1" gradientTransform="matrix(-288 0 0 -456.98 258 394.989)" gradientUnits="userSpaceOnUse"><stop stop-color="#260133"/><stop offset="1" stop-color="#1F2348"/></radialGradient><filter id="b" width="336.49" height="505.469" x="-54.245" y="-78.888" color-interpolation-filters="sRGB" filterUnits="userSpaceOnUse"><feFlood flood-opacity="0" result="BackgroundImageFix"/><feColorMatrix in="SourceAlpha" result="hardAlpha" values="0 0 0 0 0 0 0 0 0 0 0 0 0 0 0 0 0 0 127 0"/><feOffset dy="7.347"/><feGaussianBlur stdDeviation="11.755"/><feColorMatrix values="0 0 0 0 0 0 0 0 0 0 0 0 0 0 0 0 0 0 0.1 0"/><feBlend in2="BackgroundImageFix" result="effect1_dropShadow_106_171055"/><feBlend in="SourceGraphic" in2="effect1_dropShadow_106_171055" result="shape"/></filter><filter id="m" width="212.643" height="327.643" x="7.679" y="6.32" color-interpolation-filters="sRGB" filterUnits="userSpaceOnUse"><feFlood flood-opacity="0" result="BackgroundImageFix"/><feColorMatrix in="SourceAlpha" result="hardAlpha" values="0 0 0 0 0 0 0 0 0 0 0 0 0 0 0 0 0 0 127 0"/><feOffset dy="4.643"/><feGaussianBlur stdDeviation="7.429"/><feColorMatrix values="0 0 0 0 0 0 0 0 0 0 0 0 0 0 0 0 0 0 0.1 0"/><feBlend in2="BackgroundImageFix" result="effect1_dropShadow_106_171055"/><feBlend in="SourceGraphic" in2="effect1_dropShadow_106_171055" result="shape"/></filter></defs></svg>
