<svg xmlns="http://www.w3.org/2000/svg" width="292" height="437" fill="none"><mask id="a" width="254" height="399" x="19" y="13" maskUnits="userSpaceOnUse" style="mask-type:alpha"><path fill="#fff" stroke="#1F2348" stroke-opacity=".25" stroke-width="1.193" d="M271.819 23.545a9.544 9.544 0 0 0-9.544-9.544L29.545 14A9.544 9.544 0 0 0 20 23.544v377.912A9.544 9.544 0 0 0 29.544 411h232.731a9.544 9.544 0 0 0 9.544-9.544V23.546Z"/></mask><g mask="url(#a)"><path fill="#D9D9D9" fill-rule="evenodd" d="M326.801 69.069 249.718-64.38c-5.499-9.546-15.725-15.398-26.722-15.398H68.829c-10.997 0-21.172 5.903-26.67 15.398L-34.978 69.07A30.824 30.824 0 0 0-39.1 84.467v264.299h.526a30.862 30.862 0 0 0 3.598 9.734l77.084 133.448c5.498 9.547 15.725 15.398 26.722 15.398h154.167c10.997 0 21.172-5.903 26.671-15.398L326.75 358.5a30.465 30.465 0 0 0 3.638-9.734h.531V84.492m-4.118-15.423a30.805 30.805 0 0 1 4.118 15.398l-4.118-15.398Z" clip-rule="evenodd"/><path fill="#fff" d="M326.801 69.068 249.718-64.379c-5.499-9.547-15.725-15.398-26.722-15.398H68.829c-10.997 0-21.172 5.902-26.67 15.398L-34.978 69.068A30.825 30.825 0 0 0-39.1 84.466v264.3h.526a30.868 30.868 0 0 0 3.598 9.734l77.084 133.447c5.498 9.547 15.725 15.398 26.722 15.398h154.167c10.997 0 21.172-5.902 26.67-15.398L326.75 358.5a30.474 30.474 0 0 0 3.638-9.734h.531v-264.3a30.806 30.806 0 0 0-4.118-15.398Z"/><g filter="url(#b)"><path fill="#fff" fill-rule="evenodd" d="M326.801 69.068 249.718-64.379 145.912 67.003l77.084-146.78H68.829l77.083 146.78L42.158-64.379-34.977 69.068A30.825 30.825 0 0 0-39.1 84.466l92.507-8.731 92.506-8.732 92.504 8.732 92.503 8.731a30.806 30.806 0 0 0-4.118-15.398Zm3.581 279.732-92.235 5.882-92.235 5.883-92.244-5.9-92.243-5.899a30.868 30.868 0 0 0 3.598 9.734l77.084 133.447 103.805-131.382-77.083 146.78h154.167l-77.084-146.78 103.754 131.382L326.75 358.5a30.509 30.509 0 0 0 3.632-9.7Z" clip-rule="evenodd"/><path fill="#fff" d="M-39.1 84.466v132.15h185.012L-39.101 84.466ZM-39.1 216.616v132.15l185.012-132.15H-39.101Z"/><path fill="#fff" d="M330.919 216.616V84.466l-185.007 132.15h185.007ZM330.919 348.766v-132.15H145.912l185.007 132.15ZM145.912 216.616v143.949l92.235-5.883-92.235-138.066Z"/><path fill="#fff" d="M145.912 360.565V216.616L53.668 354.665l92.244 5.9ZM145.912 213.784V67.004l-92.506 8.73 92.506 140.882v-2.832Z"/><path fill="#fff" d="M145.912 67.003v149.613l92.504-140.881-92.504-8.732Z"/><path stroke="#1F2348" stroke-opacity=".25" stroke-width="1.888" d="m249.718-64.38 77.083 133.448a30.805 30.805 0 0 1 4.118 15.398M249.718-64.379c-5.499-9.547-15.725-15.398-26.722-15.398m26.722 15.398L145.912 67.003m77.084-146.78h-77.084m77.084 0-77.084 146.78M68.829-79.777c-10.997 0-21.172 5.902-26.67 15.398m26.67-15.398h77.083m-77.083 0 77.083 146.78M42.158-64.379-34.977 69.068A30.824 30.824 0 0 0-39.1 84.466M42.16-64.379 145.911 67.003M-39.101 84.466v132.15m0-132.15 185.013 132.15M-39.101 84.466l92.507-8.731m-92.507 273.031h.526m-.526 0v-132.15m0 132.15 185.013-132.15m-184.487 132.15a30.868 30.868 0 0 0 3.598 9.734l77.084 133.447m-80.682-143.181 92.244 5.899M42.107 491.947c5.498 9.547 15.725 15.398 26.722 15.398m-26.722-15.398 103.805-131.382m-77.083 146.78h77.083m-77.083 0 77.083-146.78m77.084 146.78c10.997 0 21.172-5.902 26.67-15.398m-26.67 15.398h-77.084m77.084 0-77.084-146.78m103.754 131.382L326.75 358.5a30.509 30.509 0 0 0 3.632-9.7m-80.716 143.147L145.912 360.565m185.007-11.799h-.496a.041.041 0 0 0-.041.034m.537-.034v-132.15m0 132.15-.537.034m.537-.034-185.007-132.15m185.007-132.15v132.15m0-132.15-185.007 132.15m185.007-132.15-92.503-8.731M145.912-79.777v146.78m0 440.342v-146.78m185.007-143.949H145.912m-185.013 0h185.013m0-149.613v149.613m0-149.613 92.504 8.732m-92.504-8.732-92.506 8.732m92.506 284.83V216.616m0 143.949-92.244-5.9m92.244 5.9 92.235-5.883m-92.235-138.066 92.504-140.881m-92.504 140.881L53.406 75.735m92.506 140.881L53.668 354.665m92.244-138.049 92.235 138.066m92.235-5.882-92.235 5.882"/></g><path fill="url(#c)" stroke="#1F2348" stroke-width="13.215" d="M321.076 72.366a24.307 24.307 0 0 1 2.09 4.731l-73.204-6.91-10.926-1.03-80.407-7.59 90.237-114.21 72.21 125.009ZM152.52 74.264l74.349 7.018-74.349 113.232V74.264Zm-13.215 0v120.251L64.953 81.282l74.352-7.018Zm-86.52-5.108-10.926 1.032-73.202 6.909a24.334 24.334 0 0 1 2.092-4.731l72.258-125.01 90.192 114.21-80.414 7.59ZM212.062-73.17l-66.15 125.962L79.762-73.17h132.3ZM-28.783 356.013l70.588 4.514 11.442.732 79.67 5.095-89.959 113.857-71.74-124.198Zm349.318.036-71.719 124.16-89.91-113.852 79.662-5.081 11.443-.73 70.524-4.497Zm-94.252-7.231-73.763 4.704V238.401l73.763 110.417Zm-258.776-138.81V97.305l157.787 112.703H-32.493Zm0 13.215h157.787L-32.493 335.926V223.223Zm171.798 130.298-73.773-4.718 73.773-110.406v115.124Zm185.006-130.298v112.703l-157.78-112.703h157.78Zm0-13.215h-157.78l157.78-112.702v112.702ZM79.762 500.738l66.15-125.962 66.15 125.962h-132.3Z" opacity=".2"/><g filter="url(#d)"><path fill="#fff" d="M262.825 31.252a9.544 9.544 0 0 0-9.544-9.544H38.537a9.544 9.544 0 0 0-9.544 9.543v362.494c0 5.272 4.273 9.545 9.544 9.545h214.744c5.271 0 9.544-4.273 9.544-9.545V31.252Z"/><path stroke="#1F2348" stroke-opacity=".25" stroke-width="1.193" d="M262.825 31.252a9.544 9.544 0 0 0-9.544-9.544H38.537a9.544 9.544 0 0 0-9.544 9.543v362.494c0 5.272 4.273 9.545 9.544 9.545h214.744c5.271 0 9.544-4.273 9.544-9.545V31.252Z"/></g></g><defs><filter id="b" width="432.319" height="649.422" x="-70.25" y="-101.488" color-interpolation-filters="sRGB" filterUnits="userSpaceOnUse"><feFlood flood-opacity="0" result="BackgroundImageFix"/><feColorMatrix in="SourceAlpha" result="hardAlpha" values="0 0 0 0 0 0 0 0 0 0 0 0 0 0 0 0 0 0 127 0"/><feOffset dy="9.439"/><feGaussianBlur stdDeviation="15.103"/><feColorMatrix values="0 0 0 0 0 0 0 0 0 0 0 0 0 0 0 0 0 0 0.1 0"/><feBlend in2="BackgroundImageFix" result="effect1_dropShadow_106_175822"/><feBlend in="SourceGraphic" in2="effect1_dropShadow_106_175822" result="shape"/></filter><filter id="d" width="273.201" height="420.952" x="9.308" y="7.987" color-interpolation-filters="sRGB" filterUnits="userSpaceOnUse"><feFlood flood-opacity="0" result="BackgroundImageFix"/><feColorMatrix in="SourceAlpha" result="hardAlpha" values="0 0 0 0 0 0 0 0 0 0 0 0 0 0 0 0 0 0 127 0"/><feOffset dy="5.965"/><feGaussianBlur stdDeviation="9.544"/><feColorMatrix values="0 0 0 0 0 0 0 0 0 0 0 0 0 0 0 0 0 0 0.1 0"/><feBlend in2="BackgroundImageFix" result="effect1_dropShadow_106_175822"/><feBlend in="SourceGraphic" in2="effect1_dropShadow_106_175822" result="shape"/></filter><radialGradient id="c" cx="0" cy="0" r="1" gradientTransform="matrix(-370.019 0 0 -587.123 330.919 507.345)" gradientUnits="userSpaceOnUse"><stop stop-color="#260133"/><stop offset="1" stop-color="#1F2348"/></radialGradient></defs></svg>
