<svg xmlns="http://www.w3.org/2000/svg" width="252" height="275" fill="none"><path fill="url(#a)" d="m249.445 126.607-44.334-76.751c-3.162-5.49-9.044-8.856-15.369-8.856h-88.667a17.755 17.755 0 0 0-15.34 8.856l-44.363 76.751a17.719 17.719 0 0 0 0 17.712l44.334 76.751c3.162 5.491 9.044 8.856 15.369 8.856h88.667a17.756 17.756 0 0 0 15.34-8.856l44.334-76.751c3.192-5.461 3.192-12.221.029-17.712Z"/><mask id="c" width="213" height="190" x="39" y="41" maskUnits="userSpaceOnUse" style="mask-type:alpha"><path fill="url(#b)" d="m249.445 127.013-44.334-76.75c-3.162-5.491-9.044-8.857-15.369-8.857h-88.667a17.754 17.754 0 0 0-15.34 8.856l-44.363 76.751a17.719 17.719 0 0 0 0 17.712l44.334 76.751c3.162 5.491 9.044 8.856 15.369 8.856h88.667a17.754 17.754 0 0 0 15.34-8.856l44.334-76.751c3.192-5.461 3.192-12.221.029-17.712Z"/></mask><g mask="url(#c)"><circle cx="164.859" cy="125.497" r="160.39" fill="url(#d)" transform="rotate(-12.602 164.859 125.497)"/><circle cx="164.859" cy="125.497" r="160.39" fill="url(#e)" style="mix-blend-mode:difference" transform="rotate(-12.602 164.859 125.497)"/><g style="mix-blend-mode:screen"><circle cx="164.859" cy="125.497" r="160.39" fill="url(#f)" style="mix-blend-mode:difference" transform="rotate(-12.602 164.859 125.497)"/></g></g><path fill="url(#g)" d="m249.445 126.607-44.334-76.751c-3.162-5.49-9.044-8.856-15.369-8.856h-88.667a17.755 17.755 0 0 0-15.34 8.856l-44.363 76.751a17.719 17.719 0 0 0 0 17.712l44.334 76.751c3.162 5.491 9.044 8.856 15.369 8.856h88.667a17.756 17.756 0 0 0 15.34-8.856l44.334-76.751c3.192-5.461 3.192-12.221.029-17.712Z"/><mask id="i" width="213" height="189" x="39" y="41" maskUnits="userSpaceOnUse" style="mask-type:alpha"><path stroke="url(#h)" stroke-width="6" d="m202.512 51.353.002.003 44.331 76.748.001.002c2.629 4.566 2.623 10.176-.02 14.699l-.004.007-.004.006-44.332 76.749-.001.001a14.754 14.754 0 0 1-12.743 7.358h-88.667c-5.263 0-10.148-2.801-12.77-7.353l-.002-.003-44.331-76.748a14.719 14.719 0 0 1-.002-14.715l.002-.003 44.36-76.745A14.755 14.755 0 0 1 101.074 44h88.667c5.263 0 10.148 2.801 12.77 7.353Z"/></mask><g mask="url(#i)"><path fill="#D9D9D9" fill-rule="evenodd" d="M286.201 21.268 226.205-82.599c-4.28-7.43-12.24-11.985-20.799-11.985H85.412c-8.56 0-16.48 4.594-20.759 11.985L4.616 21.268a23.987 23.987 0 0 0-3.21 11.985v205.714h.41a24.03 24.03 0 0 0 2.8 7.576L64.613 350.41c4.28 7.431 12.24 11.985 20.799 11.985h119.994c8.559 0 16.479-4.594 20.759-11.985l59.996-103.867a23.717 23.717 0 0 0 2.832-7.576h.413V33.256m-3.205-11.988a23.962 23.962 0 0 1 3.205 11.985l-3.205-11.985Z" clip-rule="evenodd"/><path fill="#fff" d="M286.201 21.267 226.205-82.6c-4.28-7.43-12.24-11.985-20.799-11.985H85.412c-8.56 0-16.48 4.594-20.759 11.985L4.616 21.267a23.992 23.992 0 0 0-3.21 11.985v205.714h.41a24.032 24.032 0 0 0 2.8 7.577L64.613 350.41c4.28 7.43 12.24 11.985 20.799 11.985h119.994c8.559 0 16.479-4.594 20.759-11.985l59.996-103.867a23.69 23.69 0 0 0 2.832-7.577h.413V33.252a23.963 23.963 0 0 0-3.205-11.985Z"/><g filter="url(#j)"><path fill="#fff" fill-rule="evenodd" d="M286.201 21.267 226.205-82.6 145.409 19.66l59.997-114.245H85.412L145.409 19.66 64.653-82.6 4.616 21.267a23.992 23.992 0 0 0-3.21 11.985l72.001-6.796 72.002-6.796 71.998 6.796 71.999 6.796a23.963 23.963 0 0 0-3.205-11.985Zm2.787 217.726-71.79 4.578-71.789 4.579-71.797-4.592-71.797-4.592a24.032 24.032 0 0 0 2.801 7.577L64.613 350.41l80.796-102.26-59.997 114.245h119.994L145.409 248.15l80.756 102.26 59.996-103.867a23.694 23.694 0 0 0 2.827-7.55Z" clip-rule="evenodd"/><path fill="#fff" d="M1.406 33.252v102.857H145.41L1.406 33.252ZM1.406 136.109v102.857L145.41 136.109H1.406Z"/><path fill="#fff" d="M289.406 136.109V33.252L145.409 136.109h143.997ZM289.406 238.966V136.109H145.409l143.997 102.857Z"/><path fill="#fff" d="M145.409 136.109V248.15l71.789-4.579-71.789-107.462ZM145.409 248.15V136.109L73.612 243.558l71.797 4.592ZM145.409 133.905V19.66l-72.001 6.796 72.001 109.653v-2.204Z"/><path fill="#fff" d="M145.409 19.66v116.449l71.998-109.653-71.998-6.796Z"/><path stroke="#1F2348" stroke-opacity=".25" stroke-width="1.469" d="m226.205-82.6 59.996 103.867a23.963 23.963 0 0 1 3.205 11.985M226.205-82.6c-4.28-7.43-12.24-11.985-20.799-11.985M226.205-82.6 145.409 19.66m59.997-114.245h-59.997m59.997 0L145.409 19.66M85.412-94.585c-8.56 0-16.48 4.594-20.76 11.985m20.76-11.985h59.997m-59.997 0L145.409 19.66M64.653-82.6 4.616 21.267a23.992 23.992 0 0 0-3.21 11.985M64.653-82.6l80.756 102.26M1.406 33.252v102.857m0-102.857L145.41 136.109M1.406 33.252l72.001-6.796m-72 212.51h.408m-.409 0V136.109m0 102.857L145.41 136.109M1.815 238.966a24.032 24.032 0 0 0 2.801 7.577L64.613 350.41M1.815 238.966l71.797 4.592M64.613 350.41c4.28 7.43 12.24 11.985 20.799 11.985M64.613 350.41l80.796-102.26M85.412 362.395h59.997m-59.997 0 59.997-114.245m59.997 114.245c8.559 0 16.479-4.594 20.759-11.985m-20.759 11.985h-59.997m59.997 0L145.409 248.15m80.756 102.26 59.996-103.867a23.694 23.694 0 0 0 2.827-7.55M226.165 350.41l-80.756-102.26m143.997-9.184h-.386a.033.033 0 0 0-.032.027m.418-.027V136.109m0 102.857-.418.027m.418-.027L145.409 136.109M289.406 33.252v102.857m0-102.857L145.409 136.109M289.406 33.252l-71.999-6.796M145.409-94.585V19.66m0 342.735V248.15m143.997-112.041H145.409m-144.003 0H145.41m0-116.45V136.11m0-116.45 71.998 6.797m-71.998-6.796-72.001 6.796m72.001 221.694V136.109m0 112.041-71.797-4.592m71.797 4.592 71.789-4.579m-71.789-107.462 71.998-109.653m-71.998 109.653L73.408 26.456m72.001 109.653L73.612 243.558m71.797-107.449 71.789 107.462m71.79-4.578-71.79 4.578"/></g><g opacity=".2"><mask id="t" fill="#fff"><path fill-rule="evenodd" d="M286.201 21.267 226.205-82.6 145.409 19.66l59.997-114.245H85.412L145.409 19.66 64.653-82.6 4.616 21.267a23.992 23.992 0 0 0-3.21 11.985l72.001-6.796 72.002-6.796 71.998 6.796 71.999 6.796a23.963 23.963 0 0 0-3.205-11.985Zm2.787 217.726-71.79 4.578-71.789 4.579-71.797-4.592-71.797-4.592a24.032 24.032 0 0 0 2.801 7.577L64.613 350.41l80.796-102.26-59.997 114.245h119.994L145.409 248.15l80.756 102.26 59.996-103.867a23.694 23.694 0 0 0 2.827-7.55Z" clip-rule="evenodd"/><path d="M1.406 33.252v102.857H145.41L1.406 33.252ZM1.406 136.109v102.857L145.41 136.109H1.406Z"/><path d="M289.406 136.109V33.252L145.409 136.109h143.997ZM289.406 238.966V136.109H145.409l143.997 102.857Z"/><path d="M145.409 136.109V248.15l71.789-4.579-71.789-107.462ZM145.409 248.15V136.109L73.612 243.558l71.797 4.592ZM145.409 133.905V19.66l-72.001 6.796 72.001 109.653v-2.204Z"/><path d="M145.409 19.66v116.449l71.998-109.653-71.998-6.796Z"/></mask><path fill="url(#k)" fill-rule="evenodd" d="M286.201 21.267 226.205-82.6 145.409 19.66l59.997-114.245H85.412L145.409 19.66 64.653-82.6 4.616 21.267a23.992 23.992 0 0 0-3.21 11.985l72.001-6.796 72.002-6.796 71.998 6.796 71.999 6.796a23.963 23.963 0 0 0-3.205-11.985Zm2.787 217.726-71.79 4.578-71.789 4.579-71.797-4.592-71.797-4.592a24.032 24.032 0 0 0 2.801 7.577L64.613 350.41l80.796-102.26-59.997 114.245h119.994L145.409 248.15l80.756 102.26 59.996-103.867a23.694 23.694 0 0 0 2.827-7.55Z" clip-rule="evenodd"/><path fill="url(#l)" d="M1.406 33.252v102.857H145.41L1.406 33.252Z"/><path fill="url(#m)" d="M1.406 136.109v102.857L145.41 136.109H1.406Z"/><path fill="url(#n)" d="M289.406 136.109V33.252L145.409 136.109h143.997Z"/><path fill="url(#o)" d="M289.406 238.966V136.109H145.409l143.997 102.857Z"/><path fill="url(#p)" d="M145.409 136.109V248.15l71.789-4.579-71.789-107.462Z"/><path fill="url(#q)" d="M145.409 248.15V136.109L73.612 243.558l71.797 4.592Z"/><path fill="url(#r)" d="M145.409 133.905V19.66l-72.001 6.796 72.001 109.653v-2.204Z"/><path fill="url(#s)" d="M145.409 19.66v116.449l71.998-109.653-71.998-6.796Z"/><path fill="#1F2348" d="M288.993 238.966v-5.143h-4.263l-.791 4.19 5.054.953Zm.413 0 .328 5.133-.328-10.276v5.143Zm-.418.027-5.052-.959-1.237 6.513 6.616-.422-.327-5.132ZM205.406-89.442c6.737 0 12.989 3.587 16.342 9.409l8.913-5.134c-5.206-9.04-14.874-14.56-25.255-14.56v10.285ZM69.103-80.023c3.366-5.81 9.594-9.42 16.309-9.42v-10.285c-10.404 0-20.015 5.58-25.21 14.55l8.901 5.155ZM1.815 233.823h-.409v10.286h.41v-10.286Zm83.597 123.429c-6.738 0-12.99-3.587-16.343-9.409l-8.913 5.134c5.207 9.039 14.875 14.561 25.256 14.561v-10.286Zm136.302-9.419c-3.365 5.811-9.593 9.419-16.308 9.419v10.286c10.404 0 20.014-5.581 25.209-14.551l-8.901-5.154Zm67.692-114.01h-.413v10.286h.413v-10.286ZM140.266-94.585V19.66h10.286V-94.585h-10.286Zm0 114.245v114.245h10.286V19.66h-10.286Zm0 228.49v114.245h10.286V248.15h-10.286ZM1.406 141.252H145.41v-10.286H1.406v10.286Zm149.146-5.143v-2.204h-10.286v2.204h10.286Zm-10.286 0V248.15h10.286V136.109h-10.286Zm149.14-5.143H145.409v10.286h143.997v-10.286Zm-.327 102.868-.418.026.654 10.265.419-.026-.655-10.265Zm-5.14 4.179-.003.021 10.105 1.918.006-.033-10.108-1.906ZM217.891 21.336l-71.999-6.796-.967 10.24 71.999 6.796.967-10.24Zm-144 10.24 72.001-6.796-.967-10.24-72 6.796.966 10.24Zm-.607 217.114 71.796 4.592.657-10.265-71.797-4.591-.656 10.264Zm72.452 4.592 71.79-4.578-.655-10.265-71.79 4.578.655 10.265ZM226.205-82.6l8.906-5.145-7.581-13.124-9.396 11.892 8.071 6.377Zm59.996 103.867 8.913-5.134-.006-.01-8.907 5.144ZM205.406-94.585l9.106 4.782 7.913-15.068h-17.019v10.286Zm-119.994 0v-10.286h-17.02l7.913 15.068 9.107-4.782ZM64.653-82.6l8.072-6.375-9.393-11.894-7.584 13.121 8.905 5.148ZM4.616 21.267l-8.905-5.147-.004.007-.004.006 8.913 5.134Zm-3.21 217.699H-8.879v19.987l16.264-11.617-5.979-8.37Zm.41 0 .656-10.265-13.2-.844 2.433 13.001 10.11-1.892Zm2.8 7.577-8.913 5.133.006.011 8.907-5.144ZM64.613 350.41l-8.907 5.145 7.581 13.124 9.397-11.892-8.071-6.377Zm20.799 11.985-9.107-4.783-7.913 15.068h17.02v-10.285Zm119.994 0v10.285h17.019l-7.913-15.068-9.106 4.783Zm20.759-11.985-8.073 6.375 9.396 11.897 7.583-13.127-8.906-5.145Zm59.996-103.867-8.88-5.191-.013.023-.013.023 8.906 5.145Zm3.245-7.577-5.978 8.37 16.264 11.617v-19.987h-10.286ZM145.409 19.66l-8.072 6.375 8.07 10.219 8.072-10.217-8.07-6.377Zm0 228.49 8.072-6.375-8.07-10.219-8.073 10.217 8.071 6.377Zm143.579-9.157 10.105 1.918 2.473-13.027-13.233.844.655 10.265ZM217.407 26.456l.967-10.24-6.165-.582-3.399 5.176 8.597 5.646Zm-144 0 8.598-5.646-3.399-5.176-6.165.582.966 10.24Zm.205 217.102-.657 10.265 5.916.378 3.293-4.929-8.552-5.714Zm143.586.013-8.552 5.714 3.292 4.928 5.915-.377-.655-10.265Zm.1-321.026 59.997 103.867 17.813-10.29-59.997-103.867-17.813 10.29ZM13.521 26.415 73.558-77.454l-17.81-10.295L-4.29 16.12l17.81 10.294Zm-1.829 6.837c0-2.358.609-4.72 1.837-6.851L-4.297 16.133a34.278 34.278 0 0 0-4.582 17.119h20.571Zm1.837 208.157a13.738 13.738 0 0 1-1.604-4.335l-20.22 3.784a34.31 34.31 0 0 0 3.998 10.818l17.826-10.267Zm59.99 103.856L13.524 241.398l-17.814 10.289 59.997 103.868 17.814-10.29Zm203.736-103.867-59.997 103.867 17.813 10.29 59.997-103.868-17.813-10.289Zm.033-214.997a13.695 13.695 0 0 1 1.833 6.845l20.571.012a34.262 34.262 0 0 0-4.578-17.125l-17.826 10.268ZM85.412-84.3h59.997v-20.572H85.412v20.572Zm59.997 0h59.997v-20.572h-59.997v20.572Zm59.997 436.408h-59.997v20.571h59.997v-20.571Zm-59.997 0H85.412v20.571h59.997v-20.571ZM279.121 33.252v102.857h20.571V33.252h-20.571Zm0 102.857v102.857h20.571V136.109h-20.571ZM11.692 238.966V136.109H-8.879v102.857h20.571Zm0-102.857V33.252H-8.879v102.857h20.571Zm125.646 105.664-80.796 102.26 16.142 12.754 80.795-102.261-16.141-12.753Zm-42.82 125.404 59.997-114.245-18.213-9.565-59.996 114.245 18.212 9.565Zm119.994-9.565-59.997-114.245-18.213 9.565 59.997 114.245 18.213-9.565Zm-77.175-103.088 80.755 102.261 16.145-12.75-80.756-102.26-16.144 12.749Zm58.962-353.891L136.302 14.878l18.213 9.564 59.997-114.245-18.213-9.564Zm21.835 10.39-80.796 102.26 16.141 12.754 80.796-102.26-16.141-12.754ZM56.581-76.226l80.756 102.26 16.144-12.749-80.756-102.26-16.144 12.75Zm19.724-13.577 59.997 114.245 18.213-9.564L94.518-99.367l-18.213 9.564Zm202.578 326.878a13.408 13.408 0 0 1-1.602 4.277l17.761 10.381a33.987 33.987 0 0 0 4.051-10.822l-20.21-3.836ZM151.387 127.739 7.385 24.882l-11.957 16.74L139.43 144.479l11.957-16.74ZM7.385 247.336l144.002-102.857-11.957-16.74L-4.572 230.596l11.957 16.74Zm144.002-102.857L295.385 41.622l-11.957-16.74L139.43 127.739l11.957 16.74Zm-11.957 0 143.998 102.857 11.957-16.74-143.998-102.857-11.957 16.74ZM290.373 23.012l-71.999-6.796-1.933 20.48 71.999 6.796 1.933-20.48ZM208.81 20.81l-71.999 109.653 17.196 11.291 71.998-109.653-17.195-11.29ZM2.373 43.492l72.001-6.796-1.933-20.48L.44 23.012l1.933 20.48Zm62.437-11.39 72.001 109.653 17.196-11.292L82.005 20.81 64.81 32.101ZM1.159 249.23l71.796 4.592 1.313-20.53-71.796-4.592-1.313 20.53Zm135.698-118.837L65.06 237.843l17.104 11.429 71.797-107.449-17.104-11.429Zm80.996 123.442 71.79-4.578-1.31-20.53-71.789 4.578 1.309 20.53Zm-80.997-112.013 71.79 107.462 17.105-11.427-71.789-107.463-17.106 11.428Z" mask="url(#t)"/></g></g><mask id="v" width="201" height="178" x="45" y="46" maskUnits="userSpaceOnUse" style="mask-type:alpha"><path fill="url(#u)" d="M243.556 126.578 201.731 54.7c-2.983-5.142-8.532-8.294-14.499-8.294h-83.649c-5.966 0-11.487 3.18-14.47 8.294L47.26 126.578a16.488 16.488 0 0 0 0 16.587l41.824 71.878c2.984 5.142 8.533 8.294 14.499 8.294h83.649c5.967 0 11.488-3.179 14.471-8.294l41.825-71.878c3.011-5.114 3.011-11.445.028-16.587Z"/></mask><g mask="url(#v)"><path fill="#D94432" fill-rule="evenodd" d="M150.166 85.493c27.297 0 49.425 22.529 49.425 50.319 0 27.789-22.128 50.318-49.425 50.318-27.297 0-49.426-22.529-49.426-50.318 0-27.79 22.129-50.319 49.426-50.319Z" clip-rule="evenodd"/><path fill="#010101" fill-rule="evenodd" d="M198.601 135.811c-.001 27.414-21.832 49.638-48.761 49.635-12.79 0-25.068-5.117-34.187-14.25 12.801 2.933 44.483 3.776 61.559-17.962 12.838-15.687 10.268-41.802 5.14-54.42 10.355 9.408 16.268 22.869 16.249 36.997Z" clip-rule="evenodd" opacity=".3"/><path fill="#fff" fill-rule="evenodd" d="M114.074 76.058s2.965 7.547 6.672 6.038c3.707-1.51 59.434-2.139 59.434-2.139l4.943-5.912s9.514-6.416 5.066 4.151c0 0-1.359 2.265-2.595 4.529a16.266 16.266 0 0 0-1.729 4.277c-.125 1.761 2.1-3.522 2.1-3.522l4.695 7.673s3.089 5.787-2.223 5.284c-5.314-.504-8.651-4.403-10.257-6.416l-59.434 2.139s-8.032 10.315-11.615 9.937c-3.583-.377-3.213-3.9-.865-11.07 0 0 2.101-3.522 2.224-5.283.124-1.761-1.977 3.522-1.977 3.522s-4.077-9.56-4.448-11.321c-.865-4.655 4.078-11.448 10.009-1.887Z" clip-rule="evenodd"/><path fill="#21BCA5" fill-rule="evenodd" d="M111.11 86.248s3.954-.88 2.101.755c-1.854 1.635-5.314 6.541 4.571 3.02 9.886-3.523 58.322-3.397 58.322-3.397l3.459 2.893-58.691 2.516s-7.167 8.805-10.75 8.554c-3.584-.252-.865-8.806-.865-8.806l1.853-5.535Zm77.467-13.963s2.842 1.383-1.112 6.541-7.785 6.667-.865 10.944c6.919 4.277 5.312.504 5.312.504l-3.954-6.668c0-.125 7.662-12.705.619-11.321Z" clip-rule="evenodd"/><path fill="#303030" fill-rule="evenodd" d="m93.931 182.229-1.977-16.228 2.471-.503 1.854 16.352s-.494 2.517-2.348.379Z" clip-rule="evenodd"/><path fill="#D8D8D8" fill-rule="evenodd" d="M109.137 125.37c1.977 2.893 2.471 6.416 1.483 9.686l-.495 2.516 5.314.126c3.706 1.132 3.954 10.064.741 12.831-1.359.755-2.595 1.761-3.707 2.768-1.112 1.509-6.425 6.541-10.379 7.925-.742.251-2.224 1.006-4.078 1.761-7.414 3.019-21.5 7.422-23.848-8.177l.371-8.302c.247-4.152-1.853-7.171.989-15.096s10.873-9.183 16.804-7.548c0 0 .989.629 2.966-2.138 1.977-2.768 10.255-4.151 13.839 3.648Z" clip-rule="evenodd"/><path fill="#fff" fill-rule="evenodd" d="M99.62 162.354c-6.92 3.017-22.736 9.055-25.208-7.674l.495-8.43c.247-4.15-1.854-7.169.988-15.094s2.966-8.052 16.805-7.547c12.727.377 6.549 20.503 8.896 34.09 0 1.382-.864 4.151-1.977 4.655Z" clip-rule="evenodd"/><path fill="#21BCA5" fill-rule="evenodd" d="M102.227 161.221c3.955-.881-24.96 12.958-27.801-6.542l.37-8.302c.247-4.151-1.853-7.171.989-15.096s10.874-9.183 16.805-7.547c-18.288 1.132-10.38 40.128 9.637 37.487Z" clip-rule="evenodd"/><path fill="#21BCA5" fill-rule="evenodd" d="M116.307 150.78s-10.256 9.055-14.086 10.566c-3.337 1.258-20.018 10.19-25.949-.63-.741-1.886-1.482-3.898-1.853-5.911 1.112 2.766 7.043 5.283 13.098 5.409 8.155.378 13.839-5.409 18.905-4.528a48.312 48.312 0 0 1 9.885-4.906ZM92.206 104.041l10.545.365-6.612 8.235 2.68 10.248-9.652-4.025-8.58 6.038.536-10.614-8.222-6.588 10.188-2.745 3.576-10.064 5.54 9.15Z" clip-rule="evenodd"/><path fill="#fff" fill-rule="evenodd" d="m88.808 103.49 1.608 2.562c.178.366.715.549 1.072.549l2.86.183c.717 0 1.252.733 1.252 1.465 0 .365-.18.548-.358.914l-1.786 2.379c-.359.367-.359.733-.359 1.282l.716 2.927c.178.732-.18 1.465-.894 1.648h-.895l-2.68-1.097c-.359-.185-.894-.185-1.251.181l-2.503 1.648c-.535.365-1.43.182-1.966-.367-.178-.182-.178-.548-.178-.915l.178-2.928c0-.549-.178-.914-.537-1.28l-2.321-1.831c-.539-.365-.717-1.28-.359-2.013.177-.182.536-.365.714-.548l2.86-.732c.36-.183.715-.366.894-.916l1.073-2.745c.179-.732 1.071-1.097 1.788-.915.535 0 .892.183 1.072.549Z" clip-rule="evenodd"/><path fill="#000" fill-rule="evenodd" d="M146.453 130.778s0-15.095 7.414-15.095 7.414 14.58 7.414 14.58-6.178-14.58-14.828.515ZM176.115 130.15s0-13.838 6.796-13.838 6.796 13.359 6.796 13.359-5.659-13.359-13.592.479ZM169.109 154.793c-.636 0-1.252-.027-1.855-.077-1.087-.074-1.581 6.744-3.151 7.134-1.568.39-2.124-8.026-3.138-8.34-2.927-.906-8.007-2.214-10.205-3.661-4.943-3.258-5.462-7.22-5.462-8.805 0-2.994 9.217 6.818 23.477 6.818h.569c9.748 0 15.791-3.183 16.865-3.774 1.075-.591 2.953-.818 2.953 2.011 0 1.373-2.286 3.485-5.794 5.296-.902.466-1.064 10.606-2.942 10.127-1.877-.477-2.136-8.039-3.274-7.723-2.624.7-5.33 1.035-8.043.994Z" clip-rule="evenodd" opacity=".7"/><path fill="#fff" fill-rule="evenodd" d="m159.954 146.553 3.175 14.315s.569 2.417 1.829 0c1.259-2.414 3.089-13.082 3.089-13.082a32.425 32.425 0 0 1-8.093-1.233Z" clip-rule="evenodd"/><path fill="#21BCA5" fill-rule="evenodd" d="M163.754 150.289s1.47-.641 0 10.58c0 0 0 1.358 1.235 0 .989-2.414 3.065-13.083 3.065-13.083a23.292 23.292 0 0 1-5.387-.565l1.087 3.068Z" clip-rule="evenodd"/><path fill="#fff" fill-rule="evenodd" d="m175.91 147.295 3.47 12.844s1.509 2.944 2.201 0c.692-2.944 2.187-14.957 2.187-14.957s-1.867 1.031-7.858 2.113Z" clip-rule="evenodd"/><path fill="#21BCA5" fill-rule="evenodd" d="M179.138 149.397s1.322-.905 1.853 10.403a1.1 1.1 0 0 0 .284.541c.198.176 2.088-14.63 2.088-14.63a59.073 59.073 0 0 1-5.832 2.113l1.607 1.573Z" clip-rule="evenodd"/><path fill="#1F2348" fill-rule="evenodd" d="m148.919 185.123-.494 14.088s1.359 3.272-11.985 3.272h-28.049s-6.673-6.543-2.719-9.814c3.954-3.269 14.704-4.275 14.704-4.275l-3.212-8.304 31.755 5.033Z" clip-rule="evenodd"/><path fill="#21BCA5" fill-rule="evenodd" d="m125.207 184.12-10.255-1.133c-.371 0-.618-.378-.495-.756l.124-.63c0-.376.371-.629.741-.503l10.256 1.133c.371 0 .618.378.494.756l-.123.631c-.124.251-.371.502-.742.502ZM126.195 187.265l-10.256-1.133c-.37 0-.617-.378-.494-.756l.124-.63c0-.376.37-.63.741-.504l10.256 1.134c.371 0 .618.378.494.756l-.123.631c-.124.376-.495.628-.742.502Z" clip-rule="evenodd"/><path fill="#1F2348" fill-rule="evenodd" d="M135.949 201.225c2.661 0 4.819 2.196 4.819 4.906 0 2.709-2.158 4.906-4.819 4.906-2.66 0-4.819-2.197-4.819-4.906 0-2.71 2.159-4.906 4.819-4.906Z" clip-rule="evenodd"/><path fill="#fff" fill-rule="evenodd" d="M138.046 200.973c2.662 0 4.819 2.196 4.819 4.906 0 2.709-2.157 4.906-4.819 4.906-2.661 0-4.819-2.197-4.819-4.906 0-2.71 2.158-4.906 4.819-4.906Z" clip-rule="evenodd"/><path fill="#21BCA5" fill-rule="evenodd" d="M138.054 203.11c1.502 0 2.718 1.24 2.718 2.768 0 1.529-1.216 2.767-2.718 2.767-1.501 0-2.719-1.238-2.719-2.767 0-1.528 1.218-2.768 2.719-2.768Z" clip-rule="evenodd"/><path fill="#1F2348" fill-rule="evenodd" d="M116.185 201.225c2.661 0 4.819 2.196 4.819 4.906 0 2.709-2.158 4.906-4.819 4.906s-4.819-2.197-4.819-4.906c0-2.71 2.158-4.906 4.819-4.906Z" clip-rule="evenodd"/><path fill="#fff" fill-rule="evenodd" d="M118.282 200.973c2.661 0 4.819 2.196 4.819 4.906 0 2.709-2.158 4.906-4.819 4.906-2.66 0-4.819-2.197-4.819-4.906 0-2.71 2.159-4.906 4.819-4.906Z" clip-rule="evenodd"/><path fill="#21BCA5" fill-rule="evenodd" d="M118.277 203.11c1.502 0 2.719 1.24 2.719 2.768 0 1.529-1.217 2.767-2.719 2.767-1.5 0-2.718-1.238-2.718-2.767 0-1.528 1.218-2.768 2.718-2.768Z" clip-rule="evenodd"/><path fill="#1F2348" fill-rule="evenodd" d="m152.139 185.122-1.977 14.088s-1.236 3.272 12.109 3.272h28.049s6.672-6.543 2.718-9.813c-3.954-3.27-18.411-4.276-18.411-4.276l.741-7.045-23.229 3.774Z" clip-rule="evenodd"/><path fill="#21BCA5" fill-rule="evenodd" d="m168.57 182.732 10.257.629c.369 0 .617.38.617.63v.631c0 .377-.371.63-.617.63l-10.257-.63c-.371 0-.618-.379-.618-.631v-.63c0-.376.371-.755.618-.629ZM167.332 185.624l10.256.63c.369 0 .618.378.618.63v.631c0 .376-.372.628-.618.628l-10.256-.628c-.372 0-.618-.379-.618-.631v-.63c0-.378.246-.63.618-.63Z" clip-rule="evenodd"/><path fill="#1F2348" fill-rule="evenodd" d="M162.772 201.225c2.66 0 4.818 2.196 4.818 4.906 0 2.709-2.158 4.906-4.818 4.906-2.661 0-4.821-2.197-4.821-4.906 0-2.71 2.16-4.906 4.821-4.906Z" clip-rule="evenodd"/><path fill="#fff" fill-rule="evenodd" d="M160.657 200.973c2.661 0 4.819 2.196 4.819 4.906 0 2.709-2.158 4.906-4.819 4.906s-4.819-2.197-4.819-4.906c0-2.71 2.158-4.906 4.819-4.906Z" clip-rule="evenodd"/><path fill="#21BCA5" fill-rule="evenodd" d="M160.674 203.11c1.502 0 2.718 1.24 2.718 2.768 0 1.529-1.216 2.767-2.718 2.767s-2.718-1.238-2.718-2.767c0-1.528 1.216-2.768 2.718-2.768Z" clip-rule="evenodd"/><path fill="#1F2348" fill-rule="evenodd" d="M182.533 201.225c2.661 0 4.821 2.196 4.821 4.906 0 2.709-2.16 4.906-4.821 4.906-2.66 0-4.819-2.197-4.819-4.906 0-2.71 2.159-4.906 4.819-4.906Z" clip-rule="evenodd"/><path fill="#fff" fill-rule="evenodd" d="M180.43 200.973c2.661 0 4.819 2.196 4.819 4.906 0 2.709-2.158 4.906-4.819 4.906s-4.82-2.197-4.82-4.906c0-2.71 2.159-4.906 4.82-4.906Z" clip-rule="evenodd"/><path fill="#21BCA5" fill-rule="evenodd" d="M180.433 203.11c1.5 0 2.717 1.24 2.717 2.768 0 1.529-1.217 2.767-2.717 2.767-1.502 0-2.719-1.238-2.719-2.767 0-1.528 1.217-2.768 2.719-2.768Z" clip-rule="evenodd"/><g style="mix-blend-mode:hard-light"><circle cx="170.859" cy="130.497" r="160.39" fill="url(#w)" transform="rotate(-12.602 170.859 130.497)"/><circle cx="170.859" cy="130.497" r="160.39" fill="url(#x)" style="mix-blend-mode:difference" transform="rotate(-12.602 170.859 130.497)"/><g style="mix-blend-mode:screen"><circle cx="170.859" cy="130.497" r="160.39" fill="url(#y)" style="mix-blend-mode:difference" transform="rotate(-12.602 170.859 130.497)"/></g></g></g><path fill="#fff" d="M47.214 272.316v-65.014l.29-.054a530.934 530.934 0 0 1 194.992 0l.289.054v65.014a534.89 534.89 0 0 0-195.571 0Z"/><path fill="url(#z)" fill-opacity=".1" d="M47.214 272.316v-65.014l.29-.054a530.934 530.934 0 0 1 194.992 0l.289.054v65.014a534.89 534.89 0 0 0-195.571 0Z"/><path stroke="#fff" stroke-width="4" d="M47.214 272.316v-65.014l.29-.054a530.934 530.934 0 0 1 194.992 0l.289.054v65.014a534.89 534.89 0 0 0-195.571 0Z"/><g filter="url(#A)"><path fill="#fff" fill-rule="evenodd" d="M234.886 37.99c-12.113 6.994-19.802 19.136-20.954 33.098-.181 2.175-2.968 2.798-4.058.907-6.987-12.143-19.115-19.854-33.053-21.023-2.171-.183-2.795-2.976-.909-4.066 12.114-6.99 19.803-19.132 20.954-33.097.181-2.175 2.968-2.798 4.058-.907 6.988 12.145 19.116 19.856 33.053 21.023 2.171.183 2.796 2.975.909 4.066Z" clip-rule="evenodd" style="mix-blend-mode:overlay"/></g><path fill="#F9F59D" fill-rule="evenodd" d="M229.261 38.841c-9.802 5.66-16.025 15.484-16.957 26.783-.147 1.76-2.401 2.264-3.284.734-5.654-9.826-15.468-16.066-26.747-17.012-1.757-.148-2.262-2.408-.736-3.29 9.803-5.657 16.025-15.482 16.957-26.783.147-1.76 2.401-2.264 3.284-.734 5.655 9.828 15.469 16.068 26.747 17.012 1.757.148 2.262 2.408.736 3.29Z" clip-rule="evenodd" style="mix-blend-mode:color-dodge"/><g filter="url(#B)"><path fill="#fff" fill-rule="evenodd" d="M60.738 142.92c-9.587 5.535-15.673 15.145-16.585 26.196-.143 1.721-2.349 2.215-3.211.718-5.531-9.611-15.13-15.714-26.162-16.639-1.718-.145-2.212-2.356-.719-3.219 9.588-5.532 15.674-15.142 16.585-26.195.143-1.722 2.349-2.215 3.212-.718 5.53 9.613 15.13 15.716 26.16 16.639 1.72.145 2.213 2.355.72 3.218Z" clip-rule="evenodd" style="mix-blend-mode:overlay"/></g><path fill="#F9F59D" fill-rule="evenodd" d="M56.286 143.594c-7.758 4.479-12.684 12.255-13.421 21.198a1.386 1.386 0 0 1-2.6.581c-4.475-7.777-12.242-12.716-21.17-13.465-1.39-.118-1.79-1.906-.582-2.604 7.759-4.478 12.684-12.254 13.421-21.199a1.386 1.386 0 0 1 2.6-.581c4.475 7.78 12.243 12.718 21.17 13.465 1.39.118 1.79 1.906.582 2.605Z" clip-rule="evenodd" style="mix-blend-mode:color-dodge"/><defs><radialGradient id="a" cx="0" cy="0" r="1" gradientTransform="matrix(-212.813 0 0 -188.926 251.813 229.926)" gradientUnits="userSpaceOnUse"><stop stop-color="#265DD7"/><stop offset="1" stop-color="#0582CA"/></radialGradient><radialGradient id="b" cx="0" cy="0" r="1" gradientTransform="matrix(-212.813 0 0 -188.926 251.813 230.332)" gradientUnits="userSpaceOnUse"><stop stop-color="#265DD7"/><stop offset="1" stop-color="#0582CA"/></radialGradient><radialGradient id="d" cx="0" cy="0" r="1" gradientTransform="rotate(131.671 111.567 45.476) scale(285.147 482.475)" gradientUnits="userSpaceOnUse"><stop stop-color="#2AD0CA"/><stop offset=".229" stop-color="#E1F664"/><stop offset=".469" stop-color="#FEB0FE"/><stop offset=".682" stop-color="#ABB3FC"/><stop offset=".875" stop-color="#5DF7A4"/><stop offset="1" stop-color="#58C4F6"/></radialGradient><radialGradient id="g" cx="0" cy="0" r="1" gradientTransform="matrix(-212.813 0 0 -188.926 251.813 229.926)" gradientUnits="userSpaceOnUse"><stop stop-color="#265DD7"/><stop offset="1" stop-color="#0582CA"/></radialGradient><radialGradient id="h" cx="0" cy="0" r="1" gradientTransform="matrix(-212.813 0 0 -188.926 251.813 229.926)" gradientUnits="userSpaceOnUse"><stop stop-color="#265DD7"/><stop offset="1" stop-color="#0582CA"/></radialGradient><radialGradient id="k" cx="0" cy="0" r="1" gradientTransform="matrix(-288 0 0 -456.98 289.406 362.395)" gradientUnits="userSpaceOnUse"><stop stop-color="#260133"/><stop offset="1" stop-color="#1F2348"/></radialGradient><radialGradient id="l" cx="0" cy="0" r="1" gradientTransform="matrix(-288 0 0 -456.98 289.406 362.395)" gradientUnits="userSpaceOnUse"><stop stop-color="#260133"/><stop offset="1" stop-color="#1F2348"/></radialGradient><radialGradient id="m" cx="0" cy="0" r="1" gradientTransform="matrix(-288 0 0 -456.98 289.406 362.395)" gradientUnits="userSpaceOnUse"><stop stop-color="#260133"/><stop offset="1" stop-color="#1F2348"/></radialGradient><radialGradient id="n" cx="0" cy="0" r="1" gradientTransform="matrix(-288 0 0 -456.98 289.406 362.395)" gradientUnits="userSpaceOnUse"><stop stop-color="#260133"/><stop offset="1" stop-color="#1F2348"/></radialGradient><radialGradient id="o" cx="0" cy="0" r="1" gradientTransform="matrix(-288 0 0 -456.98 289.406 362.395)" gradientUnits="userSpaceOnUse"><stop stop-color="#260133"/><stop offset="1" stop-color="#1F2348"/></radialGradient><radialGradient id="p" cx="0" cy="0" r="1" gradientTransform="matrix(-288 0 0 -456.98 289.406 362.395)" gradientUnits="userSpaceOnUse"><stop stop-color="#260133"/><stop offset="1" stop-color="#1F2348"/></radialGradient><radialGradient id="q" cx="0" cy="0" r="1" gradientTransform="matrix(-288 0 0 -456.98 289.406 362.395)" gradientUnits="userSpaceOnUse"><stop stop-color="#260133"/><stop offset="1" stop-color="#1F2348"/></radialGradient><radialGradient id="r" cx="0" cy="0" r="1" gradientTransform="matrix(-288 0 0 -456.98 289.406 362.395)" gradientUnits="userSpaceOnUse"><stop stop-color="#260133"/><stop offset="1" stop-color="#1F2348"/></radialGradient><radialGradient id="s" cx="0" cy="0" r="1" gradientTransform="matrix(-288 0 0 -456.98 289.406 362.395)" gradientUnits="userSpaceOnUse"><stop stop-color="#260133"/><stop offset="1" stop-color="#1F2348"/></radialGradient><radialGradient id="u" cx="0" cy="0" r="1" gradientTransform="matrix(-200.767 0 0 -176.931 245.79 223.337)" gradientUnits="userSpaceOnUse"><stop stop-color="#265DD7"/><stop offset="1" stop-color="#0582CA"/></radialGradient><radialGradient id="w" cx="0" cy="0" r="1" gradientTransform="rotate(131.671 113.445 49.322) scale(285.147 482.475)" gradientUnits="userSpaceOnUse"><stop stop-color="#2AD0CA"/><stop offset=".229" stop-color="#E1F664"/><stop offset=".469" stop-color="#FEB0FE"/><stop offset=".682" stop-color="#ABB3FC"/><stop offset=".875" stop-color="#5DF7A4"/><stop offset="1" stop-color="#58C4F6"/></radialGradient><radialGradient id="z" cx="0" cy="0" r="1" gradientTransform="matrix(-199.572 0 0 -87.7237 244.785 274.724)" gradientUnits="userSpaceOnUse"><stop stop-color="#260133"/><stop offset="1" stop-color="#1F2348"/></radialGradient><linearGradient id="e" x1="-103.963" x2="697.421" y1="-89.674" y2="370.035" gradientUnits="userSpaceOnUse"><stop stop-color="#fff"/><stop offset=".276"/><stop offset=".521" stop-color="#fff"/><stop offset=".776"/><stop offset="1" stop-color="#fff"/></linearGradient><linearGradient id="f" x1="-103.963" x2="697.421" y1="-89.674" y2="370.035" gradientUnits="userSpaceOnUse"><stop stop-color="#fff"/><stop offset=".276"/><stop offset=".521" stop-color="#fff"/><stop offset=".776"/><stop offset="1" stop-color="#fff"/></linearGradient><linearGradient id="x" x1="-97.963" x2="703.421" y1="-84.674" y2="375.035" gradientUnits="userSpaceOnUse"><stop stop-color="#fff"/><stop offset=".276"/><stop offset=".521" stop-color="#fff"/><stop offset=".776"/><stop offset="1" stop-color="#fff"/></linearGradient><linearGradient id="y" x1="-97.963" x2="703.421" y1="-84.674" y2="375.035" gradientUnits="userSpaceOnUse"><stop stop-color="#fff"/><stop offset=".276"/><stop offset=".521" stop-color="#fff"/><stop offset=".776"/><stop offset="1" stop-color="#fff"/></linearGradient><filter id="j" width="336.49" height="505.469" x="-22.839" y="-111.483" color-interpolation-filters="sRGB" filterUnits="userSpaceOnUse"><feFlood flood-opacity="0" result="BackgroundImageFix"/><feColorMatrix in="SourceAlpha" result="hardAlpha" values="0 0 0 0 0 0 0 0 0 0 0 0 0 0 0 0 0 0 127 0"/><feOffset dy="7.347"/><feGaussianBlur stdDeviation="11.755"/><feColorMatrix values="0 0 0 0 0 0 0 0 0 0 0 0 0 0 0 0 0 0 0.1 0"/><feBlend in2="BackgroundImageFix" result="effect1_dropShadow_0_1"/><feBlend in="SourceGraphic" in2="effect1_dropShadow_0_1" result="shape"/></filter><filter id="A" width="93.215" height="93.342" x="158.792" y=".777" color-interpolation-filters="sRGB" filterUnits="userSpaceOnUse"><feFlood flood-opacity="0" result="BackgroundImageFix"/><feColorMatrix in="SourceAlpha" result="hardAlpha" values="0 0 0 0 0 0 0 0 0 0 0 0 0 0 0 0 0 0 127 0"/><feOffset dy="5"/><feGaussianBlur stdDeviation="8"/><feColorMatrix values="0 0 0 0 0 0 0 0 0 0 0 0 0 0 0 0 0 0 0.1 0"/><feBlend in2="BackgroundImageFix" result="effect1_dropShadow_0_1"/><feBlend in="SourceGraphic" in2="effect1_dropShadow_0_1" result="shape"/></filter><filter id="B" width="73.778" height="73.879" x=".511" y="113.467" color-interpolation-filters="sRGB" filterUnits="userSpaceOnUse"><feFlood flood-opacity="0" result="BackgroundImageFix"/><feColorMatrix in="SourceAlpha" result="hardAlpha" values="0 0 0 0 0 0 0 0 0 0 0 0 0 0 0 0 0 0 127 0"/><feOffset dy="3.957"/><feGaussianBlur stdDeviation="6.332"/><feColorMatrix values="0 0 0 0 0 0 0 0 0 0 0 0 0 0 0 0 0 0 0.1 0"/><feBlend in2="BackgroundImageFix" result="effect1_dropShadow_0_1"/><feBlend in="SourceGraphic" in2="effect1_dropShadow_0_1" result="shape"/></filter></defs></svg>
